<?xml version="1.0" encoding="UTF-8" standalone="no"?>
<svg
   xmlns:dc="http://purl.org/dc/elements/1.1/"
   xmlns:cc="http://creativecommons.org/ns#"
   xmlns:rdf="http://www.w3.org/1999/02/22-rdf-syntax-ns#"
   xmlns:svg="http://www.w3.org/2000/svg"
   xmlns="http://www.w3.org/2000/svg"
   xmlns:sodipodi="http://sodipodi.sourceforge.net/DTD/sodipodi-0.dtd"
   xmlns:inkscape="http://www.inkscape.org/namespaces/inkscape"
   width="477"
   height="509"
   viewBox="-50 -50 600 600"
   fill="none"
   version="1.1"
   id="svg34"
   sodipodi:docname="moji.svg"
   inkscape:version="1.0.2-2 (e86c870879, 2021-01-15)">
  <metadata
     id="metadata40">
    <rdf:RDF>
      <cc:Work
         rdf:about="">
        <dc:format>image/svg+xml</dc:format>
        <dc:type
           rdf:resource="http://purl.org/dc/dcmitype/StillImage" />
        <dc:title />
      </cc:Work>
    </rdf:RDF>
  </metadata>
  <defs
     id="defs38">
    <clipPath
       clipPathUnits="userSpaceOnUse"
       id="clipPath1193">
      <path
         style="fill:none;fill-opacity:1;stroke:#333333;stroke-width:1.60377;stroke-linecap:butt;stroke-linejoin:miter;stroke-miterlimit:4;stroke-dasharray:none;stroke-opacity:1"
         d="m 167.75842,307.16314 c -14.12863,-4.69835 -31.78902,-9.64111 -50.33238,-9.12357 -18.543323,0.51755 -37.969625,4.06 -55.630019,11.46124 -4.218436,60.70276 10.638293,84.89506 54.610509,85.03337 43.66322,0.13734 55.93222,-25.5027 51.35189,-87.37104 z"
         id="path1195"
         sodipodi:nodetypes="cscsc" />
    </clipPath>
    <clipPath
       clipPathUnits="userSpaceOnUse"
       id="clipPath1193-2">
      <path
         style="fill:none;fill-opacity:1;stroke:#333333;stroke-width:1.60377;stroke-linecap:butt;stroke-linejoin:miter;stroke-miterlimit:4;stroke-dasharray:none;stroke-opacity:1"
         d="m 167.75842,307.16314 c -14.12863,-4.69835 -31.78902,-9.64111 -50.33238,-9.12357 -18.543323,0.51755 -37.969625,4.06 -55.630019,11.46124 -4.218436,60.70276 10.638293,84.89506 54.610509,85.03337 43.66322,0.13734 55.93222,-25.5027 51.35189,-87.37104 z"
         id="path1195-8"
         sodipodi:nodetypes="cscsc" />
    </clipPath>
    <clipPath
       clipPathUnits="userSpaceOnUse"
       id="clipPath115">
      <path
         style="display:inline;fill:#000000;fill-opacity:1;stroke:#000000;stroke-width:1.60377;stroke-linecap:butt;stroke-linejoin:miter;stroke-miterlimit:4;stroke-dasharray:none;stroke-opacity:1"
         d="m 409.30383,308.33427 c -14.12862,-4.69836 -31.78903,-9.64112 -50.33239,-9.12358 -18.54332,0.51755 -37.96961,4.06 -55.63001,11.46124 -4.21844,60.70276 10.6383,84.89507 54.61051,85.03337 43.66322,0.13734 55.93223,-25.50269 51.35189,-87.37103 z"
         id="path117"
         sodipodi:nodetypes="cscsc" />
    </clipPath>
    <clipPath
       clipPathUnits="userSpaceOnUse"
       id="clipPath119">
      <path
         style="display:inline;fill:#000000;fill-opacity:1;stroke:#000000;stroke-width:1.60377;stroke-linecap:butt;stroke-linejoin:miter;stroke-miterlimit:4;stroke-dasharray:none;stroke-opacity:1"
         d="m 409.30383,308.33427 c -14.12862,-4.69836 -31.78903,-9.64112 -50.33239,-9.12358 -18.54332,0.51755 -37.96961,4.06 -55.63001,11.46124 -4.21844,60.70276 10.6383,84.89507 54.61051,85.03337 43.66322,0.13734 55.93223,-25.50269 51.35189,-87.37103 z"
         id="path121"
         sodipodi:nodetypes="cscsc" />
    </clipPath>
    <clipPath
       clipPathUnits="userSpaceOnUse"
       id="clipPath123">
      <path
         style="display:inline;fill:#000000;fill-opacity:1;stroke:#000000;stroke-width:1.60377;stroke-linecap:butt;stroke-linejoin:miter;stroke-miterlimit:4;stroke-dasharray:none;stroke-opacity:1"
         d="m 409.30383,308.33427 c -14.12862,-4.69836 -31.78903,-9.64112 -50.33239,-9.12358 -18.54332,0.51755 -37.96961,4.06 -55.63001,11.46124 -4.21844,60.70276 10.6383,84.89507 54.61051,85.03337 43.66322,0.13734 55.93223,-25.50269 51.35189,-87.37103 z"
         id="path125"
         sodipodi:nodetypes="cscsc" />
    </clipPath>
  </defs>
  <sodipodi:namedview
     pagecolor="#ffffff"
     bordercolor="#666666"
     borderopacity="1"
     objecttolerance="10"
     gridtolerance="10"
     guidetolerance="10"
     inkscape:pageopacity="0"
     inkscape:pageshadow="2"
     inkscape:window-width="1920"
     inkscape:window-height="1001"
     id="namedview36"
     showgrid="false"
     inkscape:zoom="1.806477"
     inkscape:cx="376.65499"
     inkscape:cy="334.75046"
     inkscape:window-x="-9"
     inkscape:window-y="-9"
     inkscape:window-maximized="1"
     inkscape:current-layer="svg34"
     inkscape:document-rotation="0" />
  <path
     style="fill:none;stroke:#000000;stroke-width:1.48054px;stroke-linecap:butt;stroke-linejoin:miter;stroke-opacity:1"
     d="M -23.090394,258.50848 505.89662,255.61562 506.59265,399.294 C 450.88126,350.40604 296.33282,350.6966 237.14126,397.27281 175.45466,350.05374 28.851696,351.04889 -25.178504,400.25828 Z"
     id="path212-7"
     sodipodi:nodetypes="cccccc"
     inkscape:label="droop" />
  <g
     id="slime"
     class="slime"
     inkscape:label="slime">
    <ellipse
       cx="239"
       cy="452"
       ry="45"
       rx="220"
       filter="url(#shadow-blur)"
       fill="rgba(0,0,0,.5)"
       id="ellipse2"
       style="fill:#999999" />
    <path
       fill="url(#slime-gradient)"
       class="body"
       d="M 62.1,444 C 21.2,416.7 5.8,361.5 22.3,316 c 19.6,-65.2 77.1,-107 131,-144 36.6,-23.1 82.3,-19.7 124,-18.1 44.4,4 75.2,39.1 110,62.4 51.8,36.8 90.5,103 71.4,168 -9.93,44.1 -48.5,76.5 -92,85.2 -70.2,18.2 -144,12.9 -215,7.39 -31.4,-3.37 -65.6,-9.31 -88.9,-32.5 z"
       id="path8"
       style="fill:#00ff00" />
    <ellipse
       class="mouth mouth-open"
       style="visibility:hidden;fill:#ff8080"
       id="path502"
       cx="237.48859"
       cy="418.94388"
       rx="14.116587"
       ry="11.839718" />
    <path
       class="mouth"
       d="m 207.51572,421 c -12,-3.7 -19,-23 -9,-32 15,-2.2 -1.3,18 11,21 11,5.9 20,-3.8 23,-13 7.7,-8.8 11,6 15,11 6.1,7.3 22,5.4 23,-5.3 -0.14,-10 -0.68,-17 6.6,-16 11,11 -0.52,32 -12,34 -10,4.5 -19,-2.6 -27,-7.9 -9.6,4.1 -15,11 -30,8.7 z"
       fill="#000000"
       id="path11" />
  </g>
  <g
     inkscape:groupmode="layer"
     id="layer2"
     inkscape:label="left-eye-anime"
     style="display:inline">
    <g
       id="g1843"
       inkscape:label="outer-eye"
       transform="translate(9.4775421,-9.9288537)"
       style="display:inline">
      <path
         style="display:inline;fill:#000000;fill-opacity:1;stroke:#333333;stroke-width:1.60377;stroke-linecap:butt;stroke-linejoin:miter;stroke-miterlimit:4;stroke-dasharray:none;stroke-opacity:1"
         d="m 167.75842,307.16315 c -14.12863,-4.69836 -31.78903,-9.64113 -50.33238,-9.12358 -18.54333,0.51755 -37.96962,4.06 -55.630017,11.46123 -4.218436,60.70277 10.638297,84.89507 54.610507,85.03338 43.66322,0.13734 55.93223,-25.5027 51.35189,-87.37103 z"
         id="path63-77"
         sodipodi:nodetypes="cscsc" />
    </g>
    <g
       id="g1167"
       clip-path="url(#clipPath1193)"
       style="display:inline"
       inkscape:label="inner-eye"
       transform="translate(9.4775421,-9.9288437)">
      <path
         style="fill:#00ffff;fill-opacity:1;stroke:none;stroke-width:1.25902;stroke-linecap:butt;stroke-linejoin:miter;stroke-miterlimit:4;stroke-dasharray:none;stroke-opacity:1"
         d="m 157.56481,332.39741 c 0.25279,-45.80116 -7.90901,-60.60864 -41.43085,-60.2767 -35.45358,0.35106 -43.721347,15.0712 -43.015132,63.37324 0.442278,47.33431 38.724412,44.07444 42.618012,44.07226 3.82499,-0.002 42.86449,5.87589 41.82797,-47.1688 z"
         id="path63-9-7"
         sodipodi:nodetypes="cscsc" />
      <path
         style="fill:none;fill-opacity:1;stroke:#333333;stroke-width:1.25902;stroke-linecap:butt;stroke-linejoin:miter;stroke-miterlimit:4;stroke-dasharray:none;stroke-opacity:1"
         d="m 156.72389,311.16407 c -2.69045,-23.93713 -7.06809,-39.3753 -40.58993,-39.04336 -35.453583,0.35106 -40.147424,16.54281 -42.594675,40.87851 -3.311638,47.65404 8.351463,66.64594 42.871375,66.75451 34.27733,0.10784 43.90898,-20.02061 40.31323,-68.58966 z"
         id="path63-9"
         sodipodi:nodetypes="cscsc" />
      <path
         style="fill:#000000;fill-opacity:1;stroke:#333333;stroke-width:1.25786px;stroke-linecap:butt;stroke-linejoin:miter;stroke-opacity:1"
         d="m 134.00237,376.94264 c -38.453182,-4.83099 -58.328279,-58.6631 -19.57879,-66.52275 31.38228,0.81856 12.85512,46.63873 -5.64509,19.51941 l 7.59494,12.2551 c 19.18376,6.68331 35.05081,-33.9579 -1.72537,-35.04927 -37.52636,7.31462 -35.041531,60.04927 15.39541,70.99478"
         id="path1116-9"
         sodipodi:nodetypes="cccccc" />
    </g>
  </g>
  <g
     id="g1273"
     style="display:inline"
     inkscape:label="right-eye-anime"
     transform="translate(-7.4131304,-10.380165)">
    <g
       id="g1838"
       inkscape:label="outer-eye"
       style="display:inline">
      <path
         style="fill:#000000;fill-opacity:1;stroke:#000000;stroke-width:1.60377;stroke-linecap:butt;stroke-linejoin:miter;stroke-miterlimit:4;stroke-dasharray:none;stroke-opacity:1"
         d="m 409.30383,308.33427 c -14.12863,-4.69836 -31.78903,-9.64113 -50.33238,-9.12358 -18.54333,0.51755 -37.96962,4.06 -55.63002,11.46123 -4.21844,60.70277 10.6383,84.89507 54.61051,85.03338 43.66322,0.13734 55.93223,-25.5027 51.35189,-87.37103 z"
         id="path63-77-6"
         sodipodi:nodetypes="cscsc" />
    </g>
    <g
       id="g72"
       inkscape:label="inner-eye">
      <path
         style="fill:#00ffff;fill-opacity:1;stroke:none;stroke-width:1.25902;stroke-linecap:butt;stroke-linejoin:miter;stroke-miterlimit:4;stroke-dasharray:none;stroke-opacity:1"
         d="m 398.96864,336.49156 c 0.25279,-45.80116 -7.90901,-60.60864 -41.43085,-60.2767 -35.45358,0.35106 -43.72135,15.0712 -43.01513,63.37324 0.74998,47.30488 38.52488,44.26284 42.59201,44.38206 3.82335,0.11208 42.82494,4.91119 41.85397,-47.4786 z"
         id="path63-9-7-0"
         sodipodi:nodetypes="cscsc"
         clip-path="url(#clipPath123)" />
      <path
         style="fill:none;fill-opacity:1;stroke:#333333;stroke-width:1.25902;stroke-linecap:butt;stroke-linejoin:miter;stroke-miterlimit:4;stroke-dasharray:none;stroke-opacity:1"
         d="m 398.12772,315.25822 c -2.69045,-23.93713 -7.06809,-39.3753 -40.58993,-39.04336 -35.45358,0.35106 -40.14742,16.54281 -42.59467,40.87851 -3.31164,47.65404 8.35146,66.64594 42.87137,66.75451 34.27733,0.10784 43.90898,-20.02061 40.31323,-68.58966 z"
         id="path63-9-5"
         sodipodi:nodetypes="cscsc"
         clip-path="url(#clipPath119)" />
      <path
         style="fill:#000000;fill-opacity:1;stroke:#333333;stroke-width:1.25786px;stroke-linecap:butt;stroke-linejoin:miter;stroke-opacity:1"
         d="m 375.4062,381.03679 c -38.45318,-4.83099 -58.32828,-58.6631 -19.57879,-66.52275 31.38228,0.81856 12.85512,46.63873 -5.64509,19.51941 l 7.59494,12.2551 c 19.18376,6.68331 35.05081,-33.9579 -1.72537,-35.04927 -37.52636,7.31462 -35.04153,60.04927 15.39541,70.99478"
         id="path1116-9-8"
         sodipodi:nodetypes="cccccc"
         clip-path="url(#clipPath115)" />
    </g>
  </g>
  <g
     id="g1526"
     style="display:none"
     inkscape:label="round-eye-left">
    <ellipse
       style="fill:#000000;fill-opacity:1;stroke:none;stroke-width:3.3456;stroke-miterlimit:4;stroke-dasharray:none;stroke-dashoffset:0;stroke-opacity:1"
       id="path1277-7-0"
       cx="124.95059"
       cy="329.78079"
       rx="49.420044"
       ry="54.867889"
       inkscape:label="outer-eye" />
    <g
       id="g1834"
       inkscape:label="inner-eye">
      <ellipse
         style="fill:#ffcc00;fill-opacity:1;stroke:none;stroke-width:2.02153;stroke-miterlimit:4;stroke-dasharray:none;stroke-dashoffset:0;stroke-opacity:1"
         id="path1349-5-9"
         cx="124.92151"
         cy="336.60275"
         rx="38.339199"
         ry="42.043186" />
      <ellipse
         style="display:inline;fill:#ffffff;fill-opacity:1;stroke:#000000;stroke-width:5.93834;stroke-miterlimit:4;stroke-dasharray:none;stroke-dashoffset:0;stroke-opacity:1"
         id="path1279-5-2"
         cx="392.51755"
         cy="-166.15987"
         rx="22.637344"
         ry="25.232807"
         transform="matrix(-0.09308431,0.99565823,-0.87255662,0.48851299,0,0)" />
    </g>
  </g>
  <g
     id="g1531"
     style="display:none"
     inkscape:label="round-eye-right">
    <g
       id="g1830"
       inkscape:label="outer-eye">
      <ellipse
         style="fill:#000000;fill-opacity:1;stroke:none;stroke-width:3.3456;stroke-miterlimit:4;stroke-dasharray:none;stroke-dashoffset:0;stroke-opacity:1"
         id="path1277-7-0-9"
         cx="349.57819"
         cy="330.63614"
         rx="49.420044"
         ry="54.867889" />
    </g>
    <g
       id="g1827"
       inkscape:label="inner-eye">
      <ellipse
         style="fill:#ffcc00;fill-opacity:1;stroke:none;stroke-width:2.02153;stroke-miterlimit:4;stroke-dasharray:none;stroke-dashoffset:0;stroke-opacity:1"
         id="path1349-5-9-7"
         cx="349.54913"
         cy="337.4581"
         rx="38.339199"
         ry="42.043186" />
      <ellipse
         style="display:inline;fill:#ffffff;fill-opacity:1;stroke:#000000;stroke-width:5.93834;stroke-miterlimit:4;stroke-dasharray:none;stroke-dashoffset:0;stroke-opacity:1"
         id="path1279-5-2-7"
         cx="526.71008"
         cy="-437.91281"
         rx="22.637344"
         ry="25.232807"
         transform="matrix(-0.09308431,0.99565823,-0.87255662,0.48851299,0,0)" />
    </g>
  </g>
  <g
     id="g1607"
     inkscape:label="oval-eye-left"
     style="display:none">
    <g
       id="g1819"
       inkscape:label="inner-eye">
      <ellipse
         style="fill:#000000;fill-opacity:1;stroke:none;stroke-width:1.60377;stroke-miterlimit:4;stroke-dasharray:none;stroke-dashoffset:0;stroke-opacity:1"
         id="path1539"
         cx="128.74513"
         cy="327.97324"
         rx="30.955862"
         ry="47.265942" />
      <path
         style="fill:#ffffff;stroke:#000000;stroke-width:1.25786px;stroke-linecap:butt;stroke-linejoin:miter;stroke-opacity:1"
         d="m 110.30452,294.25857 c -6.18656,8.19106 -5.58736,8.85879 -7.0534,17.4924 10.93315,4.46794 16.70323,4.95295 27.93141,3.66776 1.69093,-1.97495 2.34925,-3.94989 1.97495,-5.92484 -5.55243,-8.91386 -12.72753,-12.95969 -22.85296,-15.23532 z"
         id="path1541"
         sodipodi:nodetypes="ccccc" />
      <ellipse
         style="fill:#ffffff;fill-opacity:1;stroke:none;stroke-width:3.32163;stroke-miterlimit:4;stroke-dasharray:none;stroke-dashoffset:0;stroke-opacity:1"
         id="path1549-5"
         cx="139.69492"
         cy="331.12946"
         rx="8.0761585"
         ry="11.642079" />
    </g>
  </g>
  <g
     id="g1602"
     inkscape:label="oval-eye-right"
     style="display:none">
    <g
       id="g1814"
       inkscape:label="inner-eye">
      <ellipse
         style="fill:#000000;fill-opacity:1;stroke:none;stroke-width:1.60377;stroke-miterlimit:4;stroke-dasharray:none;stroke-dashoffset:0;stroke-opacity:1"
         id="path1539-0"
         cx="350.1282"
         cy="327.97324"
         rx="30.955862"
         ry="47.265942" />
      <path
         style="fill:#ffffff;stroke:#000000;stroke-width:1.25786px;stroke-linecap:butt;stroke-linejoin:miter;stroke-opacity:1"
         d="m 331.68788,294.25857 c -6.18656,8.19106 -5.58736,8.85879 -7.0534,17.4924 10.93315,4.46794 16.70323,4.95295 27.93141,3.66776 1.69093,-1.97495 2.34925,-3.94989 1.97495,-5.92484 -5.55243,-8.91386 -12.72753,-12.95969 -22.85296,-15.23532 z"
         id="path1541-4"
         sodipodi:nodetypes="ccccc" />
      <ellipse
         style="fill:#ffffff;fill-opacity:1;stroke:none;stroke-width:3.32163;stroke-miterlimit:4;stroke-dasharray:none;stroke-dashoffset:0;stroke-opacity:1"
         id="path1549-5-0"
         cx="361.07797"
         cy="331.12946"
         rx="8.0761585"
         ry="11.642079" />
    </g>
  </g>
  <g
     id="g1791"
     style="display:none"
     inkscape:label="cat-eye-left">
    <g
       id="g1809"
       inkscape:label="outer-eye">
      <ellipse
         style="fill:#000000;fill-opacity:1;stroke:none;stroke-width:3.3456;stroke-miterlimit:4;stroke-dasharray:none;stroke-dashoffset:0;stroke-opacity:1"
         id="path1277-7-0-7"
         cx="124.29091"
         cy="328.85226"
         rx="49.420044"
         ry="54.867889" />
      <ellipse
         style="fill:#ffcc00;fill-opacity:1;stroke:none;stroke-width:2.02153;stroke-miterlimit:4;stroke-dasharray:none;stroke-dashoffset:0;stroke-opacity:1"
         id="path1349-5-9-77"
         cx="124.26183"
         cy="335.67422"
         rx="38.339199"
         ry="42.043186" />
    </g>
    <g
       id="g1805"
       inkscape:label="inner-eye">
      <ellipse
         style="fill:#000000;fill-opacity:1;stroke:none;stroke-width:1.60377;stroke-miterlimit:4;stroke-dasharray:none;stroke-dashoffset:0;stroke-opacity:1"
         id="path1539-7"
         cx="128.08545"
         cy="327.04471"
         rx="30.955862"
         ry="47.265942" />
      <path
         style="fill:#ffffff;stroke:#000000;stroke-width:1.25786px;stroke-linecap:butt;stroke-linejoin:miter;stroke-opacity:1"
         d="m 109.64484,293.33005 c -6.18656,8.19106 -5.58736,8.85879 -7.0534,17.4924 10.93315,4.46794 16.70323,4.95295 27.93141,3.66776 1.69093,-1.97495 2.34925,-3.94989 1.97495,-5.92484 -5.55243,-8.91386 -12.72753,-12.95969 -22.85296,-15.23532 z"
         id="path1541-0"
         sodipodi:nodetypes="ccccc" />
      <ellipse
         style="fill:#ffffff;fill-opacity:1;stroke:none;stroke-width:3.32163;stroke-miterlimit:4;stroke-dasharray:none;stroke-dashoffset:0;stroke-opacity:1"
         id="path1549-5-8"
         cx="139.03523"
         cy="330.20093"
         rx="8.0761585"
         ry="11.642079" />
    </g>
  </g>
  <g
     id="g1779"
     inkscape:label="cat-eye-right"
     style="display:none">
    <g
       id="g1800"
       style="display:inline"
       inkscape:label="outer-eye">
      <ellipse
         style="fill:#000000;fill-opacity:1;stroke:none;stroke-width:3.3456;stroke-miterlimit:4;stroke-dasharray:none;stroke-dashoffset:0;stroke-opacity:1"
         id="path1277-7-0-9-3"
         cx="348.91849"
         cy="329.70761"
         rx="49.420044"
         ry="54.867889" />
      <ellipse
         style="fill:#ffcc00;fill-opacity:1;stroke:none;stroke-width:2.02153;stroke-miterlimit:4;stroke-dasharray:none;stroke-dashoffset:0;stroke-opacity:1"
         id="path1349-5-9-7-5"
         cx="348.88943"
         cy="336.52957"
         rx="38.339199"
         ry="42.043186" />
    </g>
    <g
       id="g1796"
       inkscape:label="inner-eye">
      <ellipse
         style="fill:#000000;fill-opacity:1;stroke:none;stroke-width:1.60377;stroke-miterlimit:4;stroke-dasharray:none;stroke-dashoffset:0;stroke-opacity:1"
         id="path1539-0-3"
         cx="349.46851"
         cy="327.04471"
         rx="30.955862"
         ry="47.265942" />
      <path
         style="fill:#ffffff;stroke:#000000;stroke-width:1.25786px;stroke-linecap:butt;stroke-linejoin:miter;stroke-opacity:1"
         d="m 331.0282,293.33005 c -6.18656,8.19106 -5.58736,8.85879 -7.0534,17.4924 10.93315,4.46794 16.70323,4.95295 27.93141,3.66776 1.69093,-1.97495 2.34925,-3.94989 1.97495,-5.92484 -5.55243,-8.91386 -12.72753,-12.95969 -22.85296,-15.23532 z"
         id="path1541-4-6"
         sodipodi:nodetypes="ccccc" />
      <ellipse
         style="fill:#ffffff;fill-opacity:1;stroke:none;stroke-width:3.32163;stroke-miterlimit:4;stroke-dasharray:none;stroke-dashoffset:0;stroke-opacity:1"
         id="path1549-5-0-6"
         cx="360.41827"
         cy="330.20093"
         rx="8.0761585"
         ry="11.642079" />
    </g>
  </g>
  <path
     style="fill:none;stroke:#000000;stroke-width:1.48054px;stroke-linecap:butt;stroke-linejoin:miter;stroke-opacity:1"
     d="m 496.82201,413.85843 -528.991146,2.00101 -0.453792,-143.67935 c 55.628887,48.98182 210.177608,48.95182 269.447608,2.47547 61.6069,47.323 208.21133,46.57502 262.32442,-2.5432 z"
     id="path212"
     sodipodi:nodetypes="cccccc"
     inkscape:label="cheeks" />
</svg>
