<?xml version="1.0" encoding="UTF-8"?>
<svg width="477" height="509" fill="none" version="1.1" viewBox="-50 -50 600 600" xmlns="http://www.w3.org/2000/svg" xmlns:cc="http://creativecommons.org/ns#" xmlns:dc="http://purl.org/dc/elements/1.1/" xmlns:rdf="http://www.w3.org/1999/02/22-rdf-syntax-ns#">
 <metadata>
  <rdf:RDF>
   <cc:Work rdf:about="">
    <dc:format>image/svg+xml</dc:format>
    <dc:type rdf:resource="http://purl.org/dc/dcmitype/StillImage"/>
    <dc:title/>
   </cc:Work>
  </rdf:RDF>
 </metadata>
 <g class="slime">
  <ellipse class="right-ear" cx="380" cy="190" rx="51" ry="52" style="fill:#0f0"/>
  <ellipse class="left-ear" cx="99" cy="190" rx="51" ry="52" style="fill:#0f0"/>
  <path class="body" d="m62 444c-41-27-56-82-40-128 20-65 77-107 131-144 37-23 82-20 124-18 44 4 75 39 110 62 52 37 91 103 71 168-10 44-48 77-92 85-70 18-144 13-215 7-31-3-66-9-89-33z" style="fill:#0f0"/>
  <ellipse class="mouth mouth-open" cx="235" cy="419" rx="14" ry="12" style="fill:#ff8080;visibility:hidden"/>
  <path class="mouth" d="m205 421c-12-4-19-23-9-32 15-2-1 18 11 21 11 6 20-4 23-13 8-9 11 6 15 11 6 7 22 5 23-5-.1-10-.7-17 7-16 11 11-.5 32-12 34-10 4-19-3-27-8-10 4-15 11-30 9z" fill="#000"/>
  <g class="left-eye">
   <ellipse class="left-eye-lid" cx="117" cy="352" rx="64" ry="68"/>
   <g class="left-eye-center">
    <ellipse class="left-eye-outer" cx="117" cy="352" rx="64" ry="68" style="fill:#000"/>
   </g>
  </g>
  <g class="right-eye">
   <ellipse class="right-eye-lid" cx="352" cy="347" rx="64" ry="67"/>
   <g class="right-eye-center">
    <ellipse class="right-eye-outer" cx="352" cy="347" rx="64" ry="67" style="fill:#000"/>
   </g>
  </g>
 </g>
 <style type="text/css">.st0{fill-rule:evenodd;clip-rule:evenodd;}</style>
 <path class="st0" d="m355 385h-1c0-10-3-19-10-27-7-8-14-12-23-12v-1c9 0 16-4 23-12 7-8 10-17 10-27h1c0 10 3 19 10 27s14 12 23 12v1c-9 0-16 4-23 12-7 8-10 17-10 27z" style="fill:#fc0;stroke-width:.6"/>
 <path class="st0" d="m117 391h-1c0-10-3-19-10-27-7-8-14-12-23-12v-1c9 0 16-4 23-12 7-8 10-17 10-27h1c0 10 3 19 10 27s14 12 23 12v1c-9 0-16 4-23 12-7 8-10 17-10 27z" style="clip-rule:evenodd;fill-rule:evenodd;fill:#fc0;stroke-width:.6"/>
</svg>
